STARTFONT 2.1
FONT o
SIZE 12 72 72
FONTBOUNDINGBOX 3 3 1 6
STARTPROPERTIES 13
SLANT "R"
PIXEL_SIZE 12
POINT_SIZE 120
RESOLUTION_X 72
RESOLUTION_Y 72
SPACING "C"
AVERAGE_WIDTH 60
CHARSET_REGISTRY "ISO10646"
CHARSET_ENCODING "1"
MIN_SPACE 6
FONT_ASCENT 10
FONT_DESCENT 2
DEFAULT_CHAR 65533
ENDPROPERTIES
CHARS 1
STARTCHAR degree
ENCODING 176
SWIDTH 500 0
DWIDTH 6 0
BBX 3 3 1 6
BITMAP
40
A0
40
ENDCHAR
ENDFONT
