STARTFONT 2.1
FONT -xos4-Terminus-Medium-R-Normal--12-120-72-72-C-60-ISO10646-1
SIZE 12 72 72
FONTBOUNDINGBOX 3 3 1 6
COMMENT "Generated by fontforge, http://fontforge.sourceforge.net"
STARTPROPERTIES 20
FAMILY_NAME "Terminus"
FOUNDRY "xos4"
SETWIDTH_NAME "Normal"
ADD_STYLE_NAME ""
COPYRIGHT "Copyright (C) 2018 Dimitar Toshkov Zhekov"
NOTICE "Licensed under the SIL Open Font License, Version 1.1"
WEIGHT_NAME "Medium"
SLANT "R"
PIXEL_SIZE 12
POINT_SIZE 120
RESOLUTION_X 72
RESOLUTION_Y 72
SPACING "C"
AVERAGE_WIDTH 60
CHARSET_REGISTRY "ISO10646"
CHARSET_ENCODING "1"
MIN_SPACE 6
FONT_ASCENT 10
FONT_DESCENT 2
DEFAULT_CHAR 65533
ENDPROPERTIES
CHARS 1
STARTCHAR degree
ENCODING 176
SWIDTH 500 0
DWIDTH 6 0
BBX 3 3 1 6
BITMAP
40
A0
40
ENDCHAR
ENDFONT
